<<<<<<< HEAD
<mxfile host="Electron" modified="2023-10-17T02:08:33.839Z" agent="5.0 (Windows NT 10.0; Win64; x64) AppleWebKit/537.36 (KHTML, like Gecko) draw.io/20.8.10 Chrome/106.0.5249.199 Electron/21.3.5 Safari/537.36" etag="NICkx8EFLqC48JgymK_D" version="20.8.10" type="device"><diagram name="Page-1" id="sml87yRHOmGASyp5fPqJ">7V1bd5s6Fv41rDXzkC6EEJdHX5LMQ3ImnWa16bx0EZsaGgw+GCd2f/3hJgySDNgxEk55ihEb7Gjfvn2RJMHJcnsbWivnPpjbnqTI860Ep5KiABXp8Z9kZJeN6LKZDSxCd54T7Qe+uL/tfFDORzfu3F5XCKMg8CJ3VR2cBb5vz6LKmBWGwVuV7GfgVb91ZS1sauDLzPLo0W/uPHKyUQPJ+/H/2O7Cwd8M5PzO0sLE+cDasebBW2kIXktwEgZBlH1abie2l0wenpfsuZsDd4sfFtp+1OaB25crqD8F8ubu5cfX/z5/vjXs6Aqh/MdFO/wf2/N4AvLLIIycYBH4lne9Hx2Hwcaf28lr5fhqT3MXBKt4EMSDv+wo2uXctDZREA850dLL79pbN3pKHv+E8qvvlavpNn93erErXTzYobu0IzvEY34U7p7KF6U3JZf7V6VX+F305OXzuQ424SyficXXz+7zj3v07SnUv/pX29/w6/crLIRWuLCjuplVM8JkOkvfkPPm1g7ifyPcxQSh7VmR+1qVNysX20VBt+ds/CFn7hGM1tSPwug9b79XWCuK0RrsFaP1QaM7YrR+do1OHx2FobUrEawC14/WpTc/JAMxQe5TVewad9jHEna/gV5VECFk2S/Yi1zxr5wuhQB/6SCG5xZDgBEUf4NT97tfLW+Tf9NDGPxKsJgi31t+DJBCShRiLLRKPm6W3mgWBfGkj1/tMHJj3HVnPdveQ7B2IzfwY5LnIIqCZYlg5LmL5EaUyESZ+cEm8lzfnhRIsJYfyevsbe385Xc1Qt+waL/t8SDMh5wSFMSPnd3CG4Caz8tULcBLtZS2Fl7uhYUHCnbiuchBFdaaeABQ7QPd2HjDGOSwGzk09F5BSvOjQMreMdrsB6QEwKz6OEWvx5TUAzqQpc4NjvlRDA63GLa14xOWrKj72SVI+RhKE00ay9I1kMZjybzxFzGB70gTKI3h8rIBJoAyoX6qYIgJlI+iaR1YfOaMwbYWvxcGXyFyAhDV23uSXoMczD38MEL4SZb1qiDqUG0QxfSKfGX38glBPwRUP1JACXpVQ7X0KgB19B0JtPZRBLpvVhWiXkitVo3C1QahxZnbU+lRQ+YXQvQ+erOeHhFKR9B3o0S6GCU6t+hfSrWBhKaNMkTQq3KNTFBPk1bcJABuZjDyhwiMe5xsXd/5/uv/f78+/XpZjJf/u79Cn79dCSpaHAgLQYNsnc+wd2+g1W5gBUOAqhJkKIQEZb+UkqBGSTTaSeKx6kV+TYMHIMh12ICKlPfRGw301GwfSa83GBPNRHX0HaE0iUw+3LpJmmEElvGwNFElE+A0BJhRBuOiMg+oyg+I+S8q76BSc5/OdzrrBsQ5n2TyR9JouqKttee5q3Vild8cN7K/rKzUer2FFjGh55g7IgUKGXXBolbIZfZ0Id4r90LgGB90IpqaW2sn/a21LGx0Wqit0+rEZx3rIhChpKjBR5D0kIfRVEyRskcgoJaydxza4ix7itEL4cPNQoXwAaN7YUKUF3iyE987t2LjH89x5o1njoQrACPFT+gzNz3yhboFSLSLIGBSbsFkeQWlI6/wYZJOn4jyLYRGP3OoZ09Gva9diMZUimYtE8n3onQ+yleuP/M2c7sYXFRI8itCnmLNiKrsX0dh8BLDVS/Bv1M/8BOh+ul6HjFk5YB3FvPCLkNljISX7nzuHVLcqpSeQXdVUnex9SvprsbQXdgVohPbRXlBkM68aEinNcTNYiCd0h/HAT6C7MGedXXRfiGNtd08uWGATXx75uBLMwVfl4HBkP6pils1mQ7OcXKJT0cF3SY9uOFDbhgpLdjH1REr+lHsizlh+/M/lHuQcG66aN7RCPgOG7XpLLHcjh1IOLVbNX8vxaUu1qSpRLaxgKqlWdUZs4q6mlXMrkEjjtYI1aBTAlw1AkKR0I5HWHE6msMNUPxDifextEfre3uN1lvzty8ZWJloKjJ5dKrRaDVLwUZOUfpMq3EveTFufJPcDPOb46QuKv+9sQT7THLlK2QEAVx9Zo+qJG2V9LilCudS0rZlkvPH1CcpqUYoqcZjOYwqtN57QTW31tLUj+ygBojFnPp5hYnd+kYZ/McEfrMELG1jqQpFe8Ad2mv3t/Wcvi9hcT4Z8cvRWEJTJp9rpZ9yB8VeQPm3SOXtdlhuIhZKHaiVKccrkE7tRsMkwc+fa/u9rYq1Mn1s+q7w0GnAm+TwxPpoqocYtfPRnSXqIJ3pecwSnKMYAN1ssxVnVvxxnc/laGqJhTlEakAzWsIc1NEUqkNqoLX4Ey39GkP8u0oNTP6aWle38sNfP+4d9PdWV9FkcyV2qfdJmQEhmEJtG0aef2nK+3STdvSTvY+QiAZXY5x6jTjUq6y+nbppeIcbMWFS+fFSwzjto4/RyHIrI3fK1ceodI/xUAw6xDyiJ11jrI3mmjxVh4aak5nHaobjyjwkdO+k0zLfQjIw6oV11BhVQQPkZqgN9JBLwoZuuWhobE23tpBj3U+TraCPzpXsmTNp82wU5Xwu3hV7e2Gr+GSF6lTVG7T2uE7VZqXsxzYTRjWRBera1ujFYuyHO1gLypYiZXDz7aNYsmGHYQX4+nmhXe8X5OfxNtUX4uc1cvPbhi0KSHqlYfGUpqI6+o7Wu9DLHh83OxyCp9F1ucfSq1RZZ07QW2hALB4CjLjb4IoMjuvi+7NtOhG6sZjHNTPZowaXXlc7kdHSovfshAJE51WaM5NR076AuX2c5aGVVLdpIN/eFLJFXWGUbYrTRLiYR7wEcTCPLfhHJBBYWzZyRbya2MrN5fQWaa33rOkH4iWah5uOeyDplSaETCJeHpt4aXQBZOK4VtVQL1zLLcx+gItNomtJanO6i2dLoaYNNvvUagTgaLOZkFZoMeKkYns1scnJYOstDTbWBdEWm4QGkEPHtkaHtreuVUDfsZoC49f9cqZ97qB32FgnbKzC2lmJhYy7s7KMxbKDlT1gZYl2NGAK3kTBUC7czPJaGoNbMS8EGZuEmeCyK4IxhFlnFiajJ9JEbol/5q77A/u79KZOddKivZ6Jknn2svf79mOk+6AP9ntEWYFHTm+UdtEomj/6Ac0McicaQDt35qaXnTWb6306FKjX3l1Ypfd9/KWLo8VS1H1gE7lplZTVpzxPycyETGTeiDzSj4GKufYg60NIc3JIAzmu0mBjpqGBvL3LkkmXJZp5tEV7KLV3lPM1vrNP2CQ27xUvOUNF9uYQcBAJEoiWULVt/qa7I3OPy5L/ySvSDsVB4tRF7KYJp6RvxDR+GG3z5P0IuA2iGoMr6m0LlQR9VwG62BrN5eyr01r6Csvf9VkwpBsqekEbzoI5W6qQLslMymdXlI+yiPLoJfHku/RzpfVphv2+bvXU5RN5AZVRF2fmBfSu3IZJJ18GiHyo4EYCNkYrGtfCuNg96y/H5ZttFwT17UR5xir0OtP46C5j1ZS/rMLMwuc7dq6LzchqzadAuxg7O9IJtUyYdhYLmcflDv7oWIg6cFNwKdscDGNLw3hZy5p0IsGog/pYiKTnUqw06bxVrdGO3GJzyCSvVT05L0G1XmawlxLVmJTb+0dr/SIY1hL7+jGSIUzrTR4XeT4LMCxhOjnzW9RghJlvuubymCGZrEiF3DZqQwSD+GqcFcIO1ZH/legUBlA3yUWiXf8Wql4meco7oygGWAdQGl1Vk4vkBFVubB2dl9opexioAxk0Yxq+gBTIjL0MB0TK1hjS8WuCTRqQaZtWoAK0Sg1UqgNuqjf7Zc3ALzQnptTTVhdnb/oYW4/yPECGWLncugO5w/NjhpJve/aRq/451rCY+awBtJ1cf9S6K9fHl2EQROUoKf6nnPtgnuxvfP0P</diagram></mxfile>
=======
<mxfile host="Electron" modified="2023-10-16T17:00:25.950Z" agent="Mozilla/5.0 (Windows NT 10.0; Win64; x64) AppleWebKit/537.36 (KHTML, like Gecko) draw.io/22.0.2 Chrome/114.0.5735.289 Electron/25.8.4 Safari/537.36" etag="5WlS6ED6NUG8rOxMBHYN" version="22.0.2" type="device">
  <diagram name="Page-1" id="sml87yRHOmGASyp5fPqJ">
    <mxGraphModel dx="1480" dy="877" grid="1" gridSize="10" guides="1" tooltips="1" connect="1" arrows="1" fold="1" page="1" pageScale="1" pageWidth="850" pageHeight="1100" math="0" shadow="0">
      <root>
        <mxCell id="0" />
        <mxCell id="1" parent="0" />
        <mxCell id="Gk-37Xo0uLk_VObQG8et-55" style="edgeStyle=orthogonalEdgeStyle;rounded=0;orthogonalLoop=1;jettySize=auto;html=1;exitX=0.5;exitY=0.5;exitDx=0;exitDy=0;exitPerimeter=0;entryX=0;entryY=0.5;entryDx=0;entryDy=0;" parent="1" source="gVQib_M5WXr7Vn-xz3VY-1" target="Gk-37Xo0uLk_VObQG8et-54" edge="1">
          <mxGeometry relative="1" as="geometry" />
        </mxCell>
        <mxCell id="Gk-37Xo0uLk_VObQG8et-64" style="edgeStyle=orthogonalEdgeStyle;rounded=0;orthogonalLoop=1;jettySize=auto;html=1;exitX=0.5;exitY=0.5;exitDx=0;exitDy=0;exitPerimeter=0;entryX=0.5;entryY=0;entryDx=0;entryDy=0;" parent="1" source="gVQib_M5WXr7Vn-xz3VY-1" target="Gk-37Xo0uLk_VObQG8et-63" edge="1">
          <mxGeometry relative="1" as="geometry" />
        </mxCell>
        <mxCell id="Gk-37Xo0uLk_VObQG8et-75" style="edgeStyle=orthogonalEdgeStyle;rounded=0;orthogonalLoop=1;jettySize=auto;html=1;exitX=0.5;exitY=0.5;exitDx=0;exitDy=0;exitPerimeter=0;entryX=0;entryY=0.5;entryDx=0;entryDy=0;" parent="1" source="gVQib_M5WXr7Vn-xz3VY-1" target="Gk-37Xo0uLk_VObQG8et-74" edge="1">
          <mxGeometry relative="1" as="geometry">
            <Array as="points">
              <mxPoint x="410" y="140" />
              <mxPoint x="410" y="425" />
            </Array>
          </mxGeometry>
        </mxCell>
        <mxCell id="Gk-37Xo0uLk_VObQG8et-110" style="edgeStyle=orthogonalEdgeStyle;rounded=0;orthogonalLoop=1;jettySize=auto;html=1;exitX=0.5;exitY=0.5;exitDx=0;exitDy=0;exitPerimeter=0;entryX=0;entryY=0.5;entryDx=0;entryDy=0;" parent="1" source="gVQib_M5WXr7Vn-xz3VY-1" target="Gk-37Xo0uLk_VObQG8et-109" edge="1">
          <mxGeometry relative="1" as="geometry" />
        </mxCell>
        <mxCell id="gVQib_M5WXr7Vn-xz3VY-1" value="Project Manager" style="shape=umlActor;verticalLabelPosition=bottom;verticalAlign=top;html=1;outlineConnect=0;" parent="1" vertex="1">
          <mxGeometry x="60" y="110" width="30" height="60" as="geometry" />
        </mxCell>
        <mxCell id="Gk-37Xo0uLk_VObQG8et-81" style="edgeStyle=orthogonalEdgeStyle;rounded=0;orthogonalLoop=1;jettySize=auto;html=1;exitX=0.5;exitY=0.5;exitDx=0;exitDy=0;exitPerimeter=0;entryX=1;entryY=0.5;entryDx=0;entryDy=0;" parent="1" source="gVQib_M5WXr7Vn-xz3VY-2" target="Gk-37Xo0uLk_VObQG8et-70" edge="1">
          <mxGeometry relative="1" as="geometry">
            <Array as="points">
              <mxPoint x="1275" y="343" />
              <mxPoint x="1155" y="343" />
            </Array>
          </mxGeometry>
        </mxCell>
        <mxCell id="Gk-37Xo0uLk_VObQG8et-88" style="edgeStyle=orthogonalEdgeStyle;rounded=0;orthogonalLoop=1;jettySize=auto;html=1;exitX=0.5;exitY=0.5;exitDx=0;exitDy=0;exitPerimeter=0;entryX=1;entryY=0.5;entryDx=0;entryDy=0;" parent="1" source="gVQib_M5WXr7Vn-xz3VY-2" target="Gk-37Xo0uLk_VObQG8et-87" edge="1">
          <mxGeometry relative="1" as="geometry" />
        </mxCell>
        <mxCell id="Gk-37Xo0uLk_VObQG8et-95" style="edgeStyle=orthogonalEdgeStyle;rounded=0;orthogonalLoop=1;jettySize=auto;html=1;exitX=0.5;exitY=0.5;exitDx=0;exitDy=0;exitPerimeter=0;entryX=1;entryY=0.5;entryDx=0;entryDy=0;" parent="1" source="gVQib_M5WXr7Vn-xz3VY-2" target="Gk-37Xo0uLk_VObQG8et-94" edge="1">
          <mxGeometry relative="1" as="geometry" />
        </mxCell>
        <mxCell id="Gk-37Xo0uLk_VObQG8et-98" style="edgeStyle=orthogonalEdgeStyle;rounded=0;orthogonalLoop=1;jettySize=auto;html=1;exitX=0.5;exitY=0.5;exitDx=0;exitDy=0;exitPerimeter=0;entryX=0.5;entryY=0;entryDx=0;entryDy=0;" parent="1" source="gVQib_M5WXr7Vn-xz3VY-2" target="Gk-37Xo0uLk_VObQG8et-74" edge="1">
          <mxGeometry relative="1" as="geometry" />
        </mxCell>
        <mxCell id="gVQib_M5WXr7Vn-xz3VY-2" value="Trưởng nhóm" style="shape=umlActor;verticalLabelPosition=bottom;verticalAlign=top;html=1;outlineConnect=0;" parent="1" vertex="1">
          <mxGeometry x="1260" y="310" width="30" height="60" as="geometry" />
        </mxCell>
        <mxCell id="Gk-37Xo0uLk_VObQG8et-12" style="edgeStyle=orthogonalEdgeStyle;rounded=0;orthogonalLoop=1;jettySize=auto;html=1;exitX=0.5;exitY=0.5;exitDx=0;exitDy=0;exitPerimeter=0;entryX=0;entryY=0.5;entryDx=0;entryDy=0;" parent="1" source="Gk-37Xo0uLk_VObQG8et-3" target="Gk-37Xo0uLk_VObQG8et-9" edge="1">
          <mxGeometry relative="1" as="geometry" />
        </mxCell>
        <mxCell id="Gk-37Xo0uLk_VObQG8et-32" style="edgeStyle=orthogonalEdgeStyle;rounded=0;orthogonalLoop=1;jettySize=auto;html=1;exitX=0.5;exitY=0.5;exitDx=0;exitDy=0;exitPerimeter=0;entryX=0;entryY=0.5;entryDx=0;entryDy=0;" parent="1" source="Gk-37Xo0uLk_VObQG8et-3" target="Gk-37Xo0uLk_VObQG8et-31" edge="1">
          <mxGeometry relative="1" as="geometry" />
        </mxCell>
        <mxCell id="Gk-37Xo0uLk_VObQG8et-36" style="edgeStyle=orthogonalEdgeStyle;rounded=0;orthogonalLoop=1;jettySize=auto;html=1;exitX=0.5;exitY=0.5;exitDx=0;exitDy=0;exitPerimeter=0;entryX=0;entryY=0.5;entryDx=0;entryDy=0;" parent="1" source="Gk-37Xo0uLk_VObQG8et-3" target="Gk-37Xo0uLk_VObQG8et-35" edge="1">
          <mxGeometry relative="1" as="geometry">
            <Array as="points">
              <mxPoint x="335" y="540" />
              <mxPoint x="335" y="590" />
              <mxPoint x="570" y="590" />
            </Array>
          </mxGeometry>
        </mxCell>
        <mxCell id="Gk-37Xo0uLk_VObQG8et-76" style="edgeStyle=orthogonalEdgeStyle;rounded=0;orthogonalLoop=1;jettySize=auto;html=1;exitX=0.5;exitY=0.5;exitDx=0;exitDy=0;exitPerimeter=0;entryX=0;entryY=0.5;entryDx=0;entryDy=0;" parent="1" source="Gk-37Xo0uLk_VObQG8et-3" target="Gk-37Xo0uLk_VObQG8et-74" edge="1">
          <mxGeometry relative="1" as="geometry">
            <Array as="points">
              <mxPoint x="300" y="540" />
              <mxPoint x="300" y="400" />
            </Array>
          </mxGeometry>
        </mxCell>
        <mxCell id="Gk-37Xo0uLk_VObQG8et-3" value="Giám đốc" style="shape=umlActor;verticalLabelPosition=bottom;verticalAlign=top;html=1;outlineConnect=0;" parent="1" vertex="1">
          <mxGeometry x="70" y="510" width="30" height="60" as="geometry" />
        </mxCell>
        <mxCell id="Gk-37Xo0uLk_VObQG8et-4" value="Đăng nhập" style="ellipse;whiteSpace=wrap;html=1;" parent="1" vertex="1">
          <mxGeometry x="590" y="310" width="110" height="60" as="geometry" />
        </mxCell>
        <mxCell id="Gk-37Xo0uLk_VObQG8et-7" style="edgeStyle=orthogonalEdgeStyle;rounded=0;orthogonalLoop=1;jettySize=auto;html=1;exitX=1;exitY=0.5;exitDx=0;exitDy=0;entryX=0;entryY=0.5;entryDx=0;entryDy=0;dashed=1;" parent="1" source="Gk-37Xo0uLk_VObQG8et-5" target="Gk-37Xo0uLk_VObQG8et-4" edge="1">
          <mxGeometry relative="1" as="geometry">
            <Array as="points">
              <mxPoint x="550" y="550" />
              <mxPoint x="550" y="340" />
            </Array>
          </mxGeometry>
        </mxCell>
        <mxCell id="Gk-37Xo0uLk_VObQG8et-29" style="edgeStyle=orthogonalEdgeStyle;rounded=0;orthogonalLoop=1;jettySize=auto;html=1;exitX=0.5;exitY=0;exitDx=0;exitDy=0;entryX=0.5;entryY=1;entryDx=0;entryDy=0;dashed=1;" parent="1" source="Gk-37Xo0uLk_VObQG8et-5" target="Gk-37Xo0uLk_VObQG8et-28" edge="1">
          <mxGeometry relative="1" as="geometry">
            <Array as="points">
              <mxPoint x="425" y="518" />
            </Array>
          </mxGeometry>
        </mxCell>
        <mxCell id="Gk-37Xo0uLk_VObQG8et-5" value="Xem danh sách nhân viên" style="ellipse;whiteSpace=wrap;html=1;" parent="1" vertex="1">
          <mxGeometry x="360" y="519" width="90" height="62" as="geometry" />
        </mxCell>
        <mxCell id="Gk-37Xo0uLk_VObQG8et-6" style="edgeStyle=orthogonalEdgeStyle;rounded=0;orthogonalLoop=1;jettySize=auto;html=1;exitX=0.5;exitY=0.5;exitDx=0;exitDy=0;exitPerimeter=0;entryX=0.1;entryY=0.338;entryDx=0;entryDy=0;entryPerimeter=0;" parent="1" source="Gk-37Xo0uLk_VObQG8et-3" target="Gk-37Xo0uLk_VObQG8et-5" edge="1">
          <mxGeometry relative="1" as="geometry" />
        </mxCell>
        <mxCell id="Gk-37Xo0uLk_VObQG8et-8" value="&amp;lt;&amp;lt;include&amp;gt;&amp;gt;" style="text;html=1;strokeColor=none;fillColor=none;align=center;verticalAlign=middle;whiteSpace=wrap;rounded=0;" parent="1" vertex="1">
          <mxGeometry x="460" y="525" width="60" height="30" as="geometry" />
        </mxCell>
        <mxCell id="Gk-37Xo0uLk_VObQG8et-10" style="edgeStyle=orthogonalEdgeStyle;rounded=0;orthogonalLoop=1;jettySize=auto;html=1;exitX=1;exitY=0.5;exitDx=0;exitDy=0;entryX=0;entryY=0.5;entryDx=0;entryDy=0;dashed=1;" parent="1" source="Gk-37Xo0uLk_VObQG8et-9" target="Gk-37Xo0uLk_VObQG8et-4" edge="1">
          <mxGeometry relative="1" as="geometry">
            <Array as="points">
              <mxPoint x="550" y="630" />
              <mxPoint x="550" y="340" />
            </Array>
          </mxGeometry>
        </mxCell>
        <mxCell id="Gk-37Xo0uLk_VObQG8et-22" style="edgeStyle=orthogonalEdgeStyle;rounded=0;orthogonalLoop=1;jettySize=auto;html=1;exitX=0.5;exitY=1;exitDx=0;exitDy=0;entryX=0;entryY=0.5;entryDx=0;entryDy=0;dashed=1;" parent="1" source="Gk-37Xo0uLk_VObQG8et-9" target="Gk-37Xo0uLk_VObQG8et-37" edge="1">
          <mxGeometry relative="1" as="geometry" />
        </mxCell>
        <mxCell id="Gk-37Xo0uLk_VObQG8et-9" value="Điều chỉnh danh sách nhân viên" style="ellipse;whiteSpace=wrap;html=1;" parent="1" vertex="1">
          <mxGeometry x="357.5" y="600" width="95" height="60" as="geometry" />
        </mxCell>
        <mxCell id="Gk-37Xo0uLk_VObQG8et-11" value="&amp;lt;&amp;lt;include&amp;gt;&amp;gt;" style="text;html=1;strokeColor=none;fillColor=none;align=center;verticalAlign=middle;whiteSpace=wrap;rounded=0;" parent="1" vertex="1">
          <mxGeometry x="452.5" y="600" width="60" height="30" as="geometry" />
        </mxCell>
        <mxCell id="Gk-37Xo0uLk_VObQG8et-27" value="&amp;lt;&amp;lt;extend&amp;gt;&amp;gt;" style="text;html=1;strokeColor=none;fillColor=none;align=center;verticalAlign=middle;whiteSpace=wrap;rounded=0;" parent="1" vertex="1">
          <mxGeometry x="430" y="670" width="60" height="30" as="geometry" />
        </mxCell>
        <mxCell id="Gk-37Xo0uLk_VObQG8et-28" value="Lọc theo điều kiện" style="ellipse;whiteSpace=wrap;html=1;" parent="1" vertex="1">
          <mxGeometry x="490" y="460" width="70" height="50" as="geometry" />
        </mxCell>
        <mxCell id="Gk-37Xo0uLk_VObQG8et-30" value="&amp;lt;&amp;lt;extend&amp;gt;&amp;gt;" style="text;html=1;strokeColor=none;fillColor=none;align=center;verticalAlign=middle;whiteSpace=wrap;rounded=0;" parent="1" vertex="1">
          <mxGeometry x="430" y="489" width="60" height="30" as="geometry" />
        </mxCell>
        <mxCell id="Gk-37Xo0uLk_VObQG8et-33" style="edgeStyle=orthogonalEdgeStyle;rounded=0;orthogonalLoop=1;jettySize=auto;html=1;exitX=1;exitY=0.5;exitDx=0;exitDy=0;entryX=0;entryY=0.5;entryDx=0;entryDy=0;" parent="1" source="Gk-37Xo0uLk_VObQG8et-31" target="Gk-37Xo0uLk_VObQG8et-4" edge="1">
          <mxGeometry relative="1" as="geometry" />
        </mxCell>
        <mxCell id="Gk-37Xo0uLk_VObQG8et-34" style="edgeStyle=orthogonalEdgeStyle;rounded=0;orthogonalLoop=1;jettySize=auto;html=1;exitX=0.5;exitY=1;exitDx=0;exitDy=0;entryX=0;entryY=0.5;entryDx=0;entryDy=0;dashed=1;" parent="1" source="Gk-37Xo0uLk_VObQG8et-31" target="Gk-37Xo0uLk_VObQG8et-28" edge="1">
          <mxGeometry relative="1" as="geometry">
            <Array as="points">
              <mxPoint x="405" y="495" />
            </Array>
          </mxGeometry>
        </mxCell>
        <mxCell id="Gk-37Xo0uLk_VObQG8et-31" value="Xem thống kế trực quan" style="ellipse;whiteSpace=wrap;html=1;" parent="1" vertex="1">
          <mxGeometry x="360" y="440" width="90" height="50" as="geometry" />
        </mxCell>
        <mxCell id="Gk-37Xo0uLk_VObQG8et-39" style="edgeStyle=orthogonalEdgeStyle;rounded=0;orthogonalLoop=1;jettySize=auto;html=1;exitX=0.5;exitY=1;exitDx=0;exitDy=0;entryX=0.5;entryY=0;entryDx=0;entryDy=0;dashed=1;" parent="1" source="Gk-37Xo0uLk_VObQG8et-35" target="Gk-37Xo0uLk_VObQG8et-37" edge="1">
          <mxGeometry relative="1" as="geometry">
            <Array as="points">
              <mxPoint x="605" y="610" />
            </Array>
          </mxGeometry>
        </mxCell>
        <mxCell id="Gk-37Xo0uLk_VObQG8et-47" style="edgeStyle=orthogonalEdgeStyle;rounded=0;orthogonalLoop=1;jettySize=auto;html=1;exitX=0.5;exitY=0;exitDx=0;exitDy=0;entryX=0.5;entryY=1;entryDx=0;entryDy=0;dashed=1;" parent="1" source="Gk-37Xo0uLk_VObQG8et-35" target="Gk-37Xo0uLk_VObQG8et-4" edge="1">
          <mxGeometry relative="1" as="geometry">
            <Array as="points">
              <mxPoint x="615" y="370" />
            </Array>
          </mxGeometry>
        </mxCell>
        <mxCell id="Gk-37Xo0uLk_VObQG8et-35" value="Điều chỉnh dự án" style="ellipse;whiteSpace=wrap;html=1;" parent="1" vertex="1">
          <mxGeometry x="570" y="550" width="90" height="60" as="geometry" />
        </mxCell>
        <mxCell id="Gk-37Xo0uLk_VObQG8et-37" value="Thêm/xóa/sửa" style="ellipse;whiteSpace=wrap;html=1;" parent="1" vertex="1">
          <mxGeometry x="490" y="680" width="90" height="55" as="geometry" />
        </mxCell>
        <mxCell id="Gk-37Xo0uLk_VObQG8et-40" value="&amp;lt;&amp;lt;extend&amp;gt;&amp;gt;" style="text;html=1;strokeColor=none;fillColor=none;align=center;verticalAlign=middle;whiteSpace=wrap;rounded=0;" parent="1" vertex="1">
          <mxGeometry x="540" y="650" width="60" height="30" as="geometry" />
        </mxCell>
        <mxCell id="CNDa-G0PN_Mh5qx745Cu-5" style="edgeStyle=orthogonalEdgeStyle;rounded=0;orthogonalLoop=1;jettySize=auto;html=1;exitX=0;exitY=0.5;exitDx=0;exitDy=0;entryX=0.5;entryY=1;entryDx=0;entryDy=0;dashed=1;" edge="1" parent="1" source="Gk-37Xo0uLk_VObQG8et-41" target="Gk-37Xo0uLk_VObQG8et-35">
          <mxGeometry relative="1" as="geometry" />
        </mxCell>
        <mxCell id="Gk-37Xo0uLk_VObQG8et-41" value="Chỉ định người quản lý dự án" style="ellipse;whiteSpace=wrap;html=1;" parent="1" vertex="1">
          <mxGeometry x="650" y="660" width="90" height="60" as="geometry" />
        </mxCell>
        <mxCell id="Gk-37Xo0uLk_VObQG8et-43" value="&amp;lt;&amp;lt;include&amp;gt;&amp;gt;" style="text;html=1;strokeColor=none;fillColor=none;align=center;verticalAlign=middle;whiteSpace=wrap;rounded=0;" parent="1" vertex="1">
          <mxGeometry x="620" y="640" width="60" height="30" as="geometry" />
        </mxCell>
        <mxCell id="Gk-37Xo0uLk_VObQG8et-48" value="&amp;lt;&amp;lt;include&amp;gt;&amp;gt;" style="text;html=1;strokeColor=none;fillColor=none;align=center;verticalAlign=middle;whiteSpace=wrap;rounded=0;" parent="1" vertex="1">
          <mxGeometry x="620" y="519" width="60" height="30" as="geometry" />
        </mxCell>
        <mxCell id="Gk-37Xo0uLk_VObQG8et-51" style="edgeStyle=orthogonalEdgeStyle;rounded=0;orthogonalLoop=1;jettySize=auto;html=1;exitX=1;exitY=0.5;exitDx=0;exitDy=0;entryX=0.5;entryY=0;entryDx=0;entryDy=0;dashed=1;" parent="1" source="Gk-37Xo0uLk_VObQG8et-49" target="Gk-37Xo0uLk_VObQG8et-4" edge="1">
          <mxGeometry relative="1" as="geometry">
            <Array as="points">
              <mxPoint x="610" y="120" />
              <mxPoint x="610" y="310" />
            </Array>
          </mxGeometry>
        </mxCell>
        <mxCell id="Gk-37Xo0uLk_VObQG8et-49" value="Xem danh sách nhóm trong 1 dự án" style="ellipse;whiteSpace=wrap;html=1;" parent="1" vertex="1">
          <mxGeometry x="460" y="90" width="82.5" height="60" as="geometry" />
        </mxCell>
        <mxCell id="Gk-37Xo0uLk_VObQG8et-50" style="edgeStyle=orthogonalEdgeStyle;rounded=0;orthogonalLoop=1;jettySize=auto;html=1;exitX=0.5;exitY=0.5;exitDx=0;exitDy=0;exitPerimeter=0;entryX=0.021;entryY=0.337;entryDx=0;entryDy=0;entryPerimeter=0;" parent="1" source="gVQib_M5WXr7Vn-xz3VY-1" target="Gk-37Xo0uLk_VObQG8et-49" edge="1">
          <mxGeometry relative="1" as="geometry">
            <Array as="points">
              <mxPoint x="85" y="140" />
            </Array>
          </mxGeometry>
        </mxCell>
        <mxCell id="Gk-37Xo0uLk_VObQG8et-52" value="&amp;lt;&amp;lt;include&amp;gt;&amp;gt;" style="text;html=1;strokeColor=none;fillColor=none;align=center;verticalAlign=middle;whiteSpace=wrap;rounded=0;" parent="1" vertex="1">
          <mxGeometry x="542.5" y="90" width="60" height="30" as="geometry" />
        </mxCell>
        <mxCell id="Gk-37Xo0uLk_VObQG8et-56" style="edgeStyle=orthogonalEdgeStyle;rounded=0;orthogonalLoop=1;jettySize=auto;html=1;exitX=1;exitY=0.5;exitDx=0;exitDy=0;entryX=0.5;entryY=0;entryDx=0;entryDy=0;dashed=1;" parent="1" source="Gk-37Xo0uLk_VObQG8et-54" target="Gk-37Xo0uLk_VObQG8et-4" edge="1">
          <mxGeometry relative="1" as="geometry">
            <Array as="points">
              <mxPoint x="610" y="190" />
              <mxPoint x="610" y="310" />
            </Array>
          </mxGeometry>
        </mxCell>
        <mxCell id="Gk-37Xo0uLk_VObQG8et-54" value="Tuyển nhân lực cho 1 dự án" style="ellipse;whiteSpace=wrap;html=1;" parent="1" vertex="1">
          <mxGeometry x="425" y="160" width="85" height="60" as="geometry" />
        </mxCell>
        <mxCell id="Gk-37Xo0uLk_VObQG8et-57" value="&amp;lt;&amp;lt;include&amp;gt;&amp;gt;" style="text;html=1;strokeColor=none;fillColor=none;align=center;verticalAlign=middle;whiteSpace=wrap;rounded=0;" parent="1" vertex="1">
          <mxGeometry x="520" y="160" width="60" height="30" as="geometry" />
        </mxCell>
        <mxCell id="CNDa-G0PN_Mh5qx745Cu-4" style="edgeStyle=orthogonalEdgeStyle;rounded=0;orthogonalLoop=1;jettySize=auto;html=1;exitX=0.5;exitY=0;exitDx=0;exitDy=0;entryX=0.5;entryY=1;entryDx=0;entryDy=0;dashed=1;" edge="1" parent="1" source="Gk-37Xo0uLk_VObQG8et-58" target="Gk-37Xo0uLk_VObQG8et-54">
          <mxGeometry relative="1" as="geometry" />
        </mxCell>
        <mxCell id="Gk-37Xo0uLk_VObQG8et-58" value="Chỉ định trưởng nhóm cho các nhóm" style="ellipse;whiteSpace=wrap;html=1;" parent="1" vertex="1">
          <mxGeometry x="417.5" y="280" width="100" height="60" as="geometry" />
        </mxCell>
        <mxCell id="Gk-37Xo0uLk_VObQG8et-62" value="&amp;lt;&amp;lt;include&amp;gt;&amp;gt;" style="text;html=1;strokeColor=none;fillColor=none;align=center;verticalAlign=middle;whiteSpace=wrap;rounded=0;" parent="1" vertex="1">
          <mxGeometry x="480" y="240" width="60" height="30" as="geometry" />
        </mxCell>
        <mxCell id="Gk-37Xo0uLk_VObQG8et-65" style="edgeStyle=orthogonalEdgeStyle;rounded=0;orthogonalLoop=1;jettySize=auto;html=1;exitX=0.5;exitY=1;exitDx=0;exitDy=0;entryX=0.5;entryY=0;entryDx=0;entryDy=0;dashed=1;" parent="1" source="Gk-37Xo0uLk_VObQG8et-63" target="Gk-37Xo0uLk_VObQG8et-4" edge="1">
          <mxGeometry relative="1" as="geometry">
            <Array as="points">
              <mxPoint x="610" y="140" />
              <mxPoint x="610" y="310" />
            </Array>
          </mxGeometry>
        </mxCell>
        <mxCell id="Gk-37Xo0uLk_VObQG8et-63" value="Chia các giai đoạn" style="ellipse;whiteSpace=wrap;html=1;" parent="1" vertex="1">
          <mxGeometry x="640" y="90" width="80" height="50" as="geometry" />
        </mxCell>
        <mxCell id="Gk-37Xo0uLk_VObQG8et-66" value="&amp;lt;&amp;lt;include&amp;gt;&amp;gt;" style="text;html=1;strokeColor=none;fillColor=none;align=center;verticalAlign=middle;whiteSpace=wrap;rounded=0;" parent="1" vertex="1">
          <mxGeometry x="620" y="140" width="60" height="30" as="geometry" />
        </mxCell>
        <mxCell id="CNDa-G0PN_Mh5qx745Cu-1" style="edgeStyle=orthogonalEdgeStyle;rounded=0;orthogonalLoop=1;jettySize=auto;html=1;exitX=0;exitY=0.5;exitDx=0;exitDy=0;entryX=1;entryY=0.25;entryDx=0;entryDy=0;dashed=1;" edge="1" parent="1" source="Gk-37Xo0uLk_VObQG8et-67" target="Gk-37Xo0uLk_VObQG8et-66">
          <mxGeometry relative="1" as="geometry">
            <Array as="points">
              <mxPoint x="680" y="235" />
            </Array>
          </mxGeometry>
        </mxCell>
        <mxCell id="Gk-37Xo0uLk_VObQG8et-67" value="Giao công việc cho các nhóm" style="ellipse;whiteSpace=wrap;html=1;" parent="1" vertex="1">
          <mxGeometry x="740" y="210" width="100" height="50" as="geometry" />
        </mxCell>
        <mxCell id="Gk-37Xo0uLk_VObQG8et-69" value="&amp;lt;&amp;lt;include&amp;gt;&amp;gt;" style="text;html=1;strokeColor=none;fillColor=none;align=center;verticalAlign=middle;whiteSpace=wrap;rounded=0;" parent="1" vertex="1">
          <mxGeometry x="690" y="195" width="60" height="30" as="geometry" />
        </mxCell>
        <mxCell id="Gk-37Xo0uLk_VObQG8et-82" style="edgeStyle=orthogonalEdgeStyle;rounded=0;orthogonalLoop=1;jettySize=auto;html=1;exitX=0;exitY=0.5;exitDx=0;exitDy=0;entryX=1;entryY=0.5;entryDx=0;entryDy=0;dashed=1;" parent="1" source="Gk-37Xo0uLk_VObQG8et-70" target="Gk-37Xo0uLk_VObQG8et-4" edge="1">
          <mxGeometry relative="1" as="geometry">
            <Array as="points">
              <mxPoint x="940" y="340" />
            </Array>
          </mxGeometry>
        </mxCell>
        <mxCell id="Gk-37Xo0uLk_VObQG8et-85" style="edgeStyle=orthogonalEdgeStyle;rounded=0;orthogonalLoop=1;jettySize=auto;html=1;exitX=0.5;exitY=1;exitDx=0;exitDy=0;entryX=0.5;entryY=0;entryDx=0;entryDy=0;dashed=1;" parent="1" source="Gk-37Xo0uLk_VObQG8et-70" target="Gk-37Xo0uLk_VObQG8et-84" edge="1">
          <mxGeometry relative="1" as="geometry">
            <Array as="points">
              <mxPoint x="910" y="370" />
            </Array>
          </mxGeometry>
        </mxCell>
        <mxCell id="Gk-37Xo0uLk_VObQG8et-106" style="edgeStyle=orthogonalEdgeStyle;rounded=0;orthogonalLoop=1;jettySize=auto;html=1;exitX=1;exitY=1;exitDx=0;exitDy=0;entryX=0;entryY=0;entryDx=0;entryDy=0;dashed=1;" parent="1" source="Gk-37Xo0uLk_VObQG8et-70" target="Gk-37Xo0uLk_VObQG8et-99" edge="1">
          <mxGeometry relative="1" as="geometry" />
        </mxCell>
        <mxCell id="Gk-37Xo0uLk_VObQG8et-70" value="Xem danh sách thành viên trong nhóm" style="ellipse;whiteSpace=wrap;html=1;" parent="1" vertex="1">
          <mxGeometry x="850" y="315" width="110" height="55" as="geometry" />
        </mxCell>
        <mxCell id="Gk-37Xo0uLk_VObQG8et-78" style="edgeStyle=orthogonalEdgeStyle;rounded=0;orthogonalLoop=1;jettySize=auto;html=1;exitX=0.5;exitY=0;exitDx=0;exitDy=0;entryX=1;entryY=0.5;entryDx=0;entryDy=0;dashed=1;" parent="1" source="Gk-37Xo0uLk_VObQG8et-74" target="Gk-37Xo0uLk_VObQG8et-4" edge="1">
          <mxGeometry relative="1" as="geometry" />
        </mxCell>
        <mxCell id="Gk-37Xo0uLk_VObQG8et-74" value="Xem thông tin người dùng" style="ellipse;whiteSpace=wrap;html=1;" parent="1" vertex="1">
          <mxGeometry x="675" y="395" width="90" height="60" as="geometry" />
        </mxCell>
        <mxCell id="Gk-37Xo0uLk_VObQG8et-79" value="&amp;lt;&amp;lt;include&amp;gt;&amp;gt;" style="text;html=1;strokeColor=none;fillColor=none;align=center;verticalAlign=middle;whiteSpace=wrap;rounded=0;" parent="1" vertex="1">
          <mxGeometry x="690" y="350" width="60" height="30" as="geometry" />
        </mxCell>
        <mxCell id="Gk-37Xo0uLk_VObQG8et-83" value="&amp;lt;&amp;lt;include&amp;gt;&amp;gt;" style="text;html=1;strokeColor=none;fillColor=none;align=center;verticalAlign=middle;whiteSpace=wrap;rounded=0;" parent="1" vertex="1">
          <mxGeometry x="800" y="310" width="60" height="30" as="geometry" />
        </mxCell>
        <mxCell id="Gk-37Xo0uLk_VObQG8et-84" value="Phân công nhiệm vụ cho thành viên" style="ellipse;whiteSpace=wrap;html=1;" parent="1" vertex="1">
          <mxGeometry x="860" y="410" width="100" height="60" as="geometry" />
        </mxCell>
        <mxCell id="Gk-37Xo0uLk_VObQG8et-86" value="&amp;lt;&amp;lt;extend&amp;gt;&amp;gt;" style="text;html=1;strokeColor=none;fillColor=none;align=center;verticalAlign=middle;whiteSpace=wrap;rounded=0;" parent="1" vertex="1">
          <mxGeometry x="910" y="370" width="60" height="30" as="geometry" />
        </mxCell>
        <mxCell id="Gk-37Xo0uLk_VObQG8et-89" style="edgeStyle=orthogonalEdgeStyle;rounded=0;orthogonalLoop=1;jettySize=auto;html=1;exitX=0;exitY=0.5;exitDx=0;exitDy=0;entryX=0.5;entryY=1;entryDx=0;entryDy=0;dashed=1;" parent="1" source="Gk-37Xo0uLk_VObQG8et-87" target="Gk-37Xo0uLk_VObQG8et-4" edge="1">
          <mxGeometry relative="1" as="geometry">
            <Array as="points">
              <mxPoint x="820" y="480" />
              <mxPoint x="645" y="480" />
            </Array>
          </mxGeometry>
        </mxCell>
        <mxCell id="Gk-37Xo0uLk_VObQG8et-101" style="edgeStyle=orthogonalEdgeStyle;rounded=0;orthogonalLoop=1;jettySize=auto;html=1;exitX=0.5;exitY=1;exitDx=0;exitDy=0;entryX=1;entryY=0.5;entryDx=0;entryDy=0;dashed=1;" parent="1" source="Gk-37Xo0uLk_VObQG8et-87" target="Gk-37Xo0uLk_VObQG8et-100" edge="1">
          <mxGeometry relative="1" as="geometry">
            <mxPoint x="860" y="610" as="targetPoint" />
          </mxGeometry>
        </mxCell>
        <mxCell id="Gk-37Xo0uLk_VObQG8et-87" value="Cập nhật ngày nghỉ của thành viên" style="ellipse;whiteSpace=wrap;html=1;" parent="1" vertex="1">
          <mxGeometry x="850" y="490" width="110" height="70" as="geometry" />
        </mxCell>
        <mxCell id="Gk-37Xo0uLk_VObQG8et-90" value="&amp;lt;&amp;lt;include&amp;gt;&amp;gt;" style="text;html=1;strokeColor=none;fillColor=none;align=center;verticalAlign=middle;whiteSpace=wrap;rounded=0;" parent="1" vertex="1">
          <mxGeometry x="760" y="480" width="60" height="30" as="geometry" />
        </mxCell>
        <mxCell id="CNDa-G0PN_Mh5qx745Cu-6" style="edgeStyle=orthogonalEdgeStyle;rounded=0;orthogonalLoop=1;jettySize=auto;html=1;exitX=0;exitY=0.5;exitDx=0;exitDy=0;entryX=0.5;entryY=1;entryDx=0;entryDy=0;dashed=1;" edge="1" parent="1" source="Gk-37Xo0uLk_VObQG8et-91" target="Gk-37Xo0uLk_VObQG8et-87">
          <mxGeometry relative="1" as="geometry" />
        </mxCell>
        <mxCell id="Gk-37Xo0uLk_VObQG8et-91" value="Cập nhật Time Sprint theo số ngày nghỉ" style="ellipse;whiteSpace=wrap;html=1;" parent="1" vertex="1">
          <mxGeometry x="970" y="610" width="110" height="60" as="geometry" />
        </mxCell>
        <mxCell id="Gk-37Xo0uLk_VObQG8et-93" value="&amp;lt;&amp;lt;extend&amp;gt;&amp;gt;" style="text;html=1;strokeColor=none;fillColor=none;align=center;verticalAlign=middle;whiteSpace=wrap;rounded=0;" parent="1" vertex="1">
          <mxGeometry x="850" y="560" width="60" height="30" as="geometry" />
        </mxCell>
        <mxCell id="Gk-37Xo0uLk_VObQG8et-96" style="edgeStyle=orthogonalEdgeStyle;rounded=0;orthogonalLoop=1;jettySize=auto;html=1;exitX=0;exitY=0.5;exitDx=0;exitDy=0;entryX=0.5;entryY=1;entryDx=0;entryDy=0;dashed=1;" parent="1" source="Gk-37Xo0uLk_VObQG8et-94" target="Gk-37Xo0uLk_VObQG8et-4" edge="1">
          <mxGeometry relative="1" as="geometry">
            <Array as="points">
              <mxPoint x="790" y="710" />
              <mxPoint x="790" y="370" />
            </Array>
          </mxGeometry>
        </mxCell>
        <mxCell id="Gk-37Xo0uLk_VObQG8et-94" value="Cập nhật tiến độ làm việc Time Task" style="ellipse;whiteSpace=wrap;html=1;" parent="1" vertex="1">
          <mxGeometry x="855" y="670" width="110" height="80" as="geometry" />
        </mxCell>
        <mxCell id="Gk-37Xo0uLk_VObQG8et-97" value="&amp;lt;&amp;lt;include&amp;gt;&amp;gt;" style="text;html=1;strokeColor=none;fillColor=none;align=center;verticalAlign=middle;whiteSpace=wrap;rounded=0;" parent="1" vertex="1">
          <mxGeometry x="800" y="675" width="60" height="30" as="geometry" />
        </mxCell>
        <mxCell id="Gk-37Xo0uLk_VObQG8et-99" value="Theo dõi tiến độ của từng thành viên (TimeSprint/TimeTask)" style="ellipse;whiteSpace=wrap;html=1;" parent="1" vertex="1">
          <mxGeometry x="970" y="395" width="130" height="85" as="geometry" />
        </mxCell>
        <mxCell id="Gk-37Xo0uLk_VObQG8et-100" value="Xem ngày nghỉ của các thành viên" style="ellipse;whiteSpace=wrap;html=1;" parent="1" vertex="1">
          <mxGeometry x="740" y="570" width="110" height="60" as="geometry" />
        </mxCell>
        <mxCell id="Gk-37Xo0uLk_VObQG8et-105" value="&amp;lt;&amp;lt;extend&amp;gt;&amp;gt;" style="text;html=1;strokeColor=none;fillColor=none;align=center;verticalAlign=middle;whiteSpace=wrap;rounded=0;" parent="1" vertex="1">
          <mxGeometry x="990" y="365" width="60" height="30" as="geometry" />
        </mxCell>
        <mxCell id="Gk-37Xo0uLk_VObQG8et-112" style="edgeStyle=orthogonalEdgeStyle;rounded=0;orthogonalLoop=1;jettySize=auto;html=1;exitX=0.5;exitY=1;exitDx=0;exitDy=0;entryX=0.5;entryY=0;entryDx=0;entryDy=0;dashed=1;" parent="1" source="Gk-37Xo0uLk_VObQG8et-109" target="Gk-37Xo0uLk_VObQG8et-35" edge="1">
          <mxGeometry relative="1" as="geometry" />
        </mxCell>
        <mxCell id="Gk-37Xo0uLk_VObQG8et-109" value="Cấp tài nguyền cần thiết" style="ellipse;whiteSpace=wrap;html=1;" parent="1" vertex="1">
          <mxGeometry x="325" y="210" width="100" height="60" as="geometry" />
        </mxCell>
        <mxCell id="Gk-37Xo0uLk_VObQG8et-113" value="&amp;lt;&amp;lt;include&amp;gt;&amp;gt;" style="text;html=1;strokeColor=none;fillColor=none;align=center;verticalAlign=middle;whiteSpace=wrap;rounded=0;" parent="1" vertex="1">
          <mxGeometry x="310" y="270" width="60" height="30" as="geometry" />
        </mxCell>
        <mxCell id="CNDa-G0PN_Mh5qx745Cu-7" value="&amp;lt;&amp;lt;include&amp;gt;&amp;gt;" style="text;html=1;strokeColor=none;fillColor=none;align=center;verticalAlign=middle;whiteSpace=wrap;rounded=0;" vertex="1" parent="1">
          <mxGeometry x="910" y="610" width="60" height="30" as="geometry" />
        </mxCell>
      </root>
    </mxGraphModel>
  </diagram>
</mxfile>
>>>>>>> 61de1a83d4cb14a8d3ccbc9b02fd905b499e83dc
